PathFileType	4	(X/Y/Z)	2014001\dynamic\2014001_C3_05.trc
DataRate	CameraRate	NumFrames	NumMarkers	Units	OrigDataRate	OrigDataStartFrame	OrigNumFrames
100.000000	100.000000	4	52	mm	100.000000	129	172
Frame#	Time	L_IAS			L_IPS			R_IPS			R_IAS			L_FTC			L_FLE			L_FME			L_FAX			L_TTC			L_FAL			L_TAM			L_FCC			L_FM1			L_FM2			L_FM5			R_FTC			R_FLE			R_FME			R_FAX			R_TTC			R_FAL			R_TAM			R_FCC			R_FM1			R_FM2			R_FM5			CV7			TV10			SXS			SJN			L_SIA			L_SRS			L_SAA			L_SAE			L_HLE			L_HME			L_UOA			L_RSP			L_UHE			L_HM2			L_HM5			R_SIA			R_SRS			R_SAA			R_SAE			R_HLE			R_HME			R_UOA			R_RSP			R_UHE			R_HM2			R_HM5			
		X1	Y1	Z1	X2	Y2	Z2	X3	Y3	Z3	X4	Y4	Z4	X5	Y5	Z5	X6	Y6	Z6	X7	Y7	Z7	X8	Y8	Z8	X9	Y9	Z9	X10	Y10	Z10	X11	Y11	Z11	X12	Y12	Z12	X13	Y13	Z13	X14	Y14	Z14	X15	Y15	Z15	X16	Y16	Z16	X17	Y17	Z17	X18	Y18	Z18	X19	Y19	Z19	X20	Y20	Z20	X21	Y21	Z21	X22	Y22	Z22	X23	Y23	Z23	X24	Y24	Z24	X25	Y25	Z25	X26	Y26	Z26	X27	Y27	Z27	X28	Y28	Z28	X29	Y29	Z29	X30	Y30	Z30	X31	Y31	Z31	X32	Y32	Z32	X33	Y33	Z33	X34	Y34	Z34	X35	Y35	Z35	X36	Y36	Z36	X37	Y37	Z37	X38	Y38	Z38	X39	Y39	Z39	X40	Y40	Z40	X41	Y41	Z41	X42	Y42	Z42	X43	Y43	Z43	X44	Y44	Z44	X45	Y45	Z45	X46	Y46	Z46	X47	Y47	Z47	X48	Y48	Z48	X49	Y49	Z49	X50	Y50	Z50	X51	Y51	Z51	X52	Y52	Z52	

130	1.29	348.0985107421876	860.607055664063	1392.971069335938	265.4041137695314	900.0239868164067	1218.6083984375	174.9378967285157	899.0668945312505	1220.104125976563	110.272689819336	879.124633789063	1404.742919921875	400.815612792969	774.2825317382817	1305.494995117188	396.7995300292971	429.5317993164065	1272.181518554688	285.7230529785157	397.8201293945315	1311.608642578125	400.7913513183596	396.2640075683596	1220.619384765625	364.6265258789064	332.7640686035157	1259.182739257813	350.1480102539064	199.9907379150392	969.0707397460942	269.4598083496095	179.0079040527344	1004.544372558594	292.3322143554689	211.3986358642579	923.6824340820317	287.8092041015626	57.77740859985354	1005.824401855469	348.0715332031251	60.22260284423831	1006.57568359375	381.2517089843751	91.48285675048831	967.3112182617192	45.07981491088869	779.1588745117192	1325.886352539063	91.77700042724612	442.9216918945315	1441.297241210938	211.6662597656251	437.8123168945315	1446.065673828125	88.5684509277344	375.9296264648439	1430.89892578125	144.5878295898438	376.0998840332032	1491.715087890625	136.4153289794922	67.474479675293	1398.730712890625	222.5504608154298	83.43241882324222	1434.491333007813	192.2518157958986	26.35344314575197	1354.973754882813	209.8563995361329	24.01222610473634	1542.998046875001	144.3986511230469	37.7079315185547	1547.660034179688	98.78178405761724	25.57276344299318	1487.589599609375	211.6885375976564	1366.507446289063	1239.351928710938	226.268524169922	1133.111450195313	1183.630249023438	220.7116546630861	1148.556396484375	1424.2607421875	211.0635833740236	1307.586547851563	1370.562744140625	321.8126220703126	1176.723876953125	1186.713256835938	306.1990661621095	1308.192260742188	1203.365966796875	410.1269531250002	1311.8671875	1284.619018554688	390.0729980468752	1323.969970703125	1322.9033203125	481.1072692871096	1043.065673828125	1322.515014648438	410.1993408203127	1004.97900390625	1288.4677734375	461.1693115234377	1002.135559082032	1290.837280273438	417.9852600097659	834.9082641601567	1454.764282226563	492.209411621094	822.1338500976567	1424.644165039063	416.7637023925784	762.930114746094	1503.879272460938	493.4570922851565	745.623229980469	1437.779052734375	117.2889938354493	1167.44384765625	1172.823852539063	132.6164703369141	1292.252807617188	1197.737548828125	24.21992683410646	1290.541259765625	1263.330078125	31.12929725646974	1296.609497070313	1313.849243164063	-17.64790153503419	992.8361816406255	1256.700927734375	61.50502395629886	981.5094604492192	1237.794311523438	16.28903770446778	975.5476684570317	1228.040771484375	0.9264106750488286	779.170776367188	1332.389770507813	-52.69146728515628	781.3707885742192	1271.237426757813	-13.1684045791626	682.1564941406252	1342.598510742188	-49.88562011718753	705.052917480469	1250.210327148438	
131	1.3	347.4250488281251	863.4649047851567	1403.9541015625	263.8094787597657	902.229370117188	1229.705932617188	173.4564056396485	901.2949829101567	1231.572021484375	109.2951965332032	880.728637695313	1416.221557617188	399.2613830566409	776.3264770507817	1317.584838867188	396.7284851074221	430.4285583496096	1295.76513671875	285.0907287597657	399.5081787109377	1335.044555664063	400.7214660644534	397.0313415527346	1244.94775390625	364.140594482422	333.7664794921876	1283.286254882813	349.607147216797	202.7727966308595	992.4574584960942	268.8930053710939	181.4781951904297	1027.50341796875	291.9627380371095	213.6139984130861	946.483032226563	289.8970642089845	60.66275787353518	1030.724243164063	349.7938842773439	63.78553771972659	1030.9638671875	382.2610168457032	95.72305297851565	991.2102050781255	44.21179199218751	780.7695312500005	1336.69677734375	91.07843780517581	442.5497131347659	1445.348266601563	211.0760192871095	437.3298645019534	1450.416748046875	88.02151489257815	375.554168701172	1433.817504882813	143.7320556640626	375.0262756347657	1494.983642578125	136.541488647461	67.47662353515628	1398.529296875	222.6393127441407	83.53443908691409	1434.562377929688	192.314178466797	26.3008155822754	1354.840576171875	209.8529357910157	24.20065879821779	1542.765258789063	144.3899841308594	37.99522781372072	1547.517089843751	98.71430206298834	25.63704681396486	1487.4033203125	210.4004821777345	1368.977294921875	1251.43359375	224.2747802734376	1135.59716796875	1195.363891601563	220.4013977050782	1150.7568359375	1436.019775390625	210.7135620117189	1309.873046875	1382.510986328125	319.6579895019532	1179.201416015625	1197.679321289063	304.5457458496095	1310.630615234375	1214.6513671875	409.0593566894534	1313.980834960938	1295.176391601563	389.3712463378909	1326.000610351563	1333.635009765625	479.3550109863284	1044.755126953125	1330.6484375	408.0936279296877	1007.358764648438	1296.529052734375	458.9474792480471	1004.662658691407	1298.319458007813	418.8190002441409	833.154174804688	1458.211791992188	492.9751586914065	821.7744140625005	1426.770385742188	418.5998535156252	759.4172363281252	1504.827514648438	494.7820129394534	744.8526611328127	1437.33984375	114.5246658325196	1170.472045898438	1185.477294921875	130.6857147216797	1294.986572265625	1210.381103515625	22.81880378723145	1293.385131835938	1277.1513671875	30.49443435668947	1299.357421875	1327.509521484375	-20.16906929016114	995.3303833007817	1273.922973632813	58.65410995483401	983.3954467773442	1254.091918945313	13.235671043396	977.3923950195317	1245.087524414063	-1.246287226676941	782.878051757813	1353.267578125	-55.58894348144534	784.1327514648442	1292.755737304688	-15.60437393188477	686.1585083007815	1365.536743164063	-53.37944412231448	707.458435058594	1273.209838867188	
132	1.31	346.7578735351564	866.416137695313	1414.839233398438	262.306365966797	904.5563964843755	1240.692138671875	172.0475616455079	903.5402832031255	1242.884155273438	108.3601913452149	882.3115234375005	1427.48974609375	397.8316040039065	778.629760742188	1329.560668945313	396.605895996094	431.8157043457034	1319.151611328125	284.3666992187501	401.7575683593752	1358.259643554688	400.5159301757815	398.1025695800784	1269.130493164063	363.6832275390626	335.2456359863282	1307.53564453125	349.0320434570314	204.4142303466798	1016.779541015625	268.2881469726564	183.0885620117188	1051.505249023438	291.6399230957032	214.223358154297	970.087280273438	291.8992919921876	62.95137786865237	1057.84716796875	351.4391174316407	66.88372802734378	1057.681884765625	383.2444458007814	98.91117095947271	1017.160949707032	43.4314422607422	782.308227539063	1347.21630859375	90.35517120361331	442.2253112792971	1448.903076171875	210.418914794922	436.881774902344	1454.386962890625	87.44044494628909	375.2262573242189	1436.326904296875	142.7999877929688	374.0527648925782	1497.822387695313	136.6156005859376	67.44116210937503	1398.287109375	222.6703491210939	83.6241149902344	1434.62060546875	192.3663635253907	26.26312065124513	1354.65673828125	209.7427062988282	24.39891052246095	1542.537353515626	144.3101196289063	38.18894958496095	1547.323364257813	98.63708496093756	25.56385803222658	1487.203369140625	209.2110137939454	1371.468872070313	1263.4365234375	222.3325805664064	1138.087158203125	1207.06640625	220.1711730957032	1152.9423828125	1447.60546875	210.475311279297	1312.155883789063	1394.361694335938	317.5259094238282	1181.727294921875	1208.4912109375	302.9465637207032	1313.092163085938	1225.795288085938	408.0622863769534	1316.11376953125	1305.537353515625	388.7761230468752	1328.048950195313	1344.187377929688	477.7124938964846	1046.522338867188	1338.6357421875	406.1346435546877	1009.754943847657	1304.517211914063	456.8569946289065	1007.256286621094	1305.687622070313	419.7828369140627	831.710571289063	1461.486328125	493.8231201171877	821.7294921875005	1428.754150390625	420.5149841308596	756.2978515625002	1505.54736328125	496.1599731445315	744.4714355468752	1436.806274414063	111.7844696044922	1173.5966796875	1198.073608398438	128.8194427490235	1297.778442382813	1222.955444335938	21.52523422241212	1296.34716796875	1290.964599609375	30.01087188720705	1302.200073242188	1341.142211914063	-22.69911575317384	997.9974975585942	1291.134155273438	55.77345657348636	985.3869018554692	1270.348754882813	10.15030097961426	979.3532714843755	1262.1552734375	-3.331575632095339	786.8274536132817	1374.348510742188	-58.45576858520511	787.160278320313	1314.5166015625	-18.00113487243653	690.5396118164065	1388.8291015625	-56.86284255981448	710.1328735351565	1296.580932617188	
133	1.32	346.0249633789064	869.4179687500005	1425.69140625	260.9230346679689	906.9614257812505	1251.615112304688	170.7311096191407	905.755004882813	1254.065673828125	107.4107971191407	883.855346679688	1438.56103515625	396.5379333496096	781.1506347656255	1341.510131835938	396.439147949219	433.6695861816409	1342.241943359375	283.6101989746095	404.4971313476565	1381.22216796875	400.1918029785159	399.4774169921877	1293.05029296875	363.2998657226564	337.1723632812501	1331.837036132813	348.4569702148439	204.8580322265626	1041.94775390625	267.6898803710939	183.7604217529297	1076.498046875	291.3688049316407	213.2196044921876	994.4661254882817	293.7585754394532	64.55308532714847	1086.931518554688	352.9536743164064	69.3796310424805	1086.457153320313	384.1670227050784	100.941749572754	1044.950561523438	42.72407531738283	783.7528686523442	1357.477783203125	89.63150024414065	441.9579162597659	1452.079711914063	209.722625732422	436.4817810058596	1458.044067382813	86.8486022949219	374.9600219726564	1438.54443359375	141.8370819091797	373.1985168457032	1500.325439453125	136.6463623046876	67.3916931152344	1398.049438476563	222.6564331054689	83.70455169677737	1434.693603515625	192.4073944091798	26.26850891113283	1354.45703125	209.5612792968751	24.56826400756837	1542.338256835938	144.1796569824219	38.27518844604494	1547.127075195313	98.54460144042974	25.38686943054201	1487.011474609375	208.1205139160157	1373.936889648438	1275.35107421875	220.4528198242189	1140.5380859375	1218.737670898438	219.9962463378907	1155.09619140625	1459.037109375	210.3381652832032	1314.41650390625	1406.115112304688	315.4322509765626	1184.246704101563	1219.18505859375	301.4019470214845	1315.5205078125	1236.804809570313	407.126403808594	1318.233520507813	1315.700561523438	388.2850646972659	1330.091430664063	1354.560791015625	476.184509277344	1048.340454101563	1346.442260742188	404.3194580078127	1012.141845703125	1312.416748046875	454.9024658203127	1009.883972167969	1312.915405273438	420.8679199218752	830.5680541992192	1464.609008789063	494.7389221191409	821.9776000976567	1430.6328125	422.4849548339846	753.5737915039065	1506.097412109375	497.5772094726565	744.4594726562502	1436.24462890625	109.0935440063477	1176.74755859375	1210.629272460938	127.0307617187501	1300.5712890625	1235.448608398438	20.34535026550294	1299.388671875	1304.73828125	29.67101287841798	1305.10986328125	1354.720092773438	-25.23962974548341	1000.803771972657	1308.321411132813	52.86861038208011	987.4579467773442	1286.544677734375	7.04592847824097	981.4031372070317	1279.227416992188	-5.31975030899048	791.005004882813	1395.59716796875	-61.27701568603518	790.4420776367192	1336.487548828125	-20.33107948303223	695.2871704101565	1412.4267578125	-60.31478500366214	713.0757446289065	1320.28271484375	
